<?xml version="1.0" encoding="UTF-8"?>
<svg id="_レイヤー_2" data-name="レイヤー 2" xmlns="http://www.w3.org/2000/svg" viewBox="0 0 98 29.8">
  <defs>
    <style>
      .cls-1 {
        fill: #ff5b36;
      }
    </style>
  </defs>
  <g id="_レイヤー_1-2" data-name="レイヤー 1">
    <g id="_レイヤー_2-2" data-name=" レイヤー 2">
      <path class="cls-1" d="M0,14.1c0-2.2.3-4.2.8-5.9.5-1.7,1.3-3.2,2.3-4.4s2.2-2.2,3.7-2.8,3.1-1,4.9-1,4.3.4,5.6,1.1c1.3.7,2,1.8,2,3.2s-.3,2.3-.8,3.1-1.4,1.2-2.6,1.2h-1.9c-.6,0-1.1,0-1.6.1-.5,0-.8.3-1.1.6-.3.3-.4.7-.4,1.3s.2,1.2.5,1.5c.4.3,1.1.4,2.3.4h2.1c1.7,0,2.9.2,3.6.6.7.4,1.1,1.2,1.1,2.5s0,.9-.2,1.3c-.1.4-.3.8-.6,1.2-.3.3-.7.6-1.1.8-.5.2-1,.3-1.6.3h-2.3c-.4,0-.8,0-1.3.1-.6.1-1.2.5-1.6,1.2-.4.7-.6,1.4-.6,2.3s0,.9-.1,1.4v1.5c0,1.2-.4,2.1-1.2,2.8-.8.6-1.8,1-3,1s-2.2-.3-3.1-1c-.9-.7-1.5-1.6-2.1-2.8-.2-.6-.5-1.3-.7-2.2-.2-.9-.3-1.9-.5-3-.1-1.1-.2-2.1-.3-3.2,0-1.1-.1-2.1-.1-3.1l-.1-.1ZM33.2,10c0,.3,0,.6.1.9,0,.3.2.6.3.8.2.3.3.5.6.7.2.2.5.2.8.2s.6,0,1-.3c.3-.2.6-.5.8-.8.2-.3.4-.7.6-1.1s.2-.9.2-1.3c0-.7-.2-1.4-.6-2s-.9-.8-1.4-.8-.6.1-.9.4c-.3.2-.6.5-.8.9-.2.3-.4.7-.5,1.2-.1.4-.2.8-.2,1.2ZM34.2,20.5c-.3,0-.5.1-.7.4-.1.3-.2.6-.3,1v2.4c0,.6,0,1.3-.2,1.8-.1.6-.3,1.1-.6,1.5-.3.4-.6.8-1.1,1-.5.3-1.1.4-1.8.4-1.3,0-2.3-.4-3.1-1.2s-1.3-1.9-1.7-3.2c-.4-1.4-.7-2.9-.8-4.5-.1-1.7-.2-3.4-.2-5v-3.5c0-1.2.2-2.3.4-3.4s.6-2.2,1.1-3.1c.5-1,1.1-1.8,2-2.6.9-.7,1.9-1.3,3.2-1.7s2.8-.6,4.6-.6c3.5,0,6.1.8,7.8,2.4,1.8,1.6,2.6,3.8,2.6,6.7s-.1,2.1-.4,2.9c-.2.8-.5,1.4-.9,1.9-.3.5-.7.9-1.2,1.2-.4.3-.8.5-1.2.8-.3.2-.6.4-.9.7-.2.2-.4.5-.4.9v.5c.3.7.6,1.2,1.1,1.6.5.3,1,.6,1.6.8.6.2,1.2.3,1.8.3h1.9c1.1,0,1.8.2,2.2.7.3.4.5,1.2.5,2.3s-.1,1.3-.4,2-.7,1.3-1.3,1.9c-.5.6-1.2,1-2,1.4s-1.7.6-2.6.6-.9,0-1.4-.2c-.5-.1-1.1-.2-1.6-.4-.8-.3-1.4-.7-2-1.2s-1-1.1-1.4-1.7c-.4-.6-.7-1.2-1-1.9-.3-.6-.5-1.2-.7-1.8-.2-.5-.4-1-.6-1.3s-.3-.5-.6-.5l.3-.3ZM63.6,7.4c-.2,0-.5,0-.8.2-.2.1-.5.3-.6.5-.2.2-.3.4-.5.7-.1.3-.2.5-.2.8,0,1,.7,1.4,2.2,1.4s1.1,0,1.6-.1,1.1-.2,1.6-.2c1.1,0,1.9.3,2.5.8s1,1.3,1,2.2-.4,1.9-1.2,2.6c-.8.7-1.8,1-3.1,1h-2.4c-.8,0-1.4.2-1.8.6s-.6,1-.6,1.7.1.9.4,1c.2.2.7.3,1.4.3s1.6-.1,2.3-.4c.7-.2,1.3-.5,2-.8.6-.3,1.2-.6,1.7-.8.6-.2,1.1-.4,1.7-.4.9,0,1.5.3,2.1.9.5.6.8,1.4.8,2.4s-.2,1.9-.7,2.8-1.2,1.7-2.1,2.4-2,1.2-3.3,1.6c-1.3.4-2.8.6-4.5.6-3.5,0-6.1-1.2-7.8-3.7-1.7-2.5-2.6-6.2-2.6-11.1s.9-8.5,2.7-10.8c1.8-2.3,4.7-3.5,8.6-3.5s6.8,1.6,6.8,4.7-1.1,3.4-3.3,3.4-.9,0-1.3-.2c-.4-.1-.7-.2-1-.3s-.6-.3-.8-.4c-.2-.1-.5-.2-.7-.2l-.1.3ZM87.9,7.4c-.2,0-.5,0-.8.2-.2.1-.5.3-.6.5-.2.2-.3.4-.5.7-.1.3-.2.5-.2.8,0,1,.7,1.4,2.2,1.4s1.1,0,1.6-.1,1.1-.2,1.6-.2c1.1,0,1.9.3,2.5.8s1,1.3,1,2.2-.4,1.9-1.2,2.6c-.8.7-1.8,1-3.1,1h-2.4c-.8,0-1.4.2-1.8.6s-.6,1-.6,1.7.1.9.4,1c.2.2.7.3,1.4.3s1.6-.1,2.3-.4c.7-.2,1.3-.5,2-.8.6-.3,1.2-.6,1.7-.8.6-.2,1.1-.4,1.7-.4.9,0,1.5.3,2.1.9.5.6.8,1.4.8,2.4s-.2,1.9-.7,2.8-1.2,1.7-2.1,2.4-2,1.2-3.3,1.6c-1.3.4-2.8.6-4.5.6-3.5,0-6.1-1.2-7.8-3.7s-2.6-6.2-2.6-11.1.9-8.5,2.7-10.8c1.8-2.3,4.7-3.5,8.6-3.5s6.8,1.6,6.8,4.7-1.1,3.4-3.3,3.4-.9,0-1.3-.2c-.4-.1-.7-.2-1-.3s-.6-.3-.8-.4c-.2-.1-.5-.2-.7-.2l-.1.3Z"/>
    </g>
  </g>
</svg>